{"accessors" : [{"bufferView" : 0, "byteOffset" : 0, "componentType" : 5123, "count" : 49152, "type" : "SCALAR", "max" : [40175], "min" : [0]}, {"bufferView" : 1, "byteOffset" : 0, "componentType" : 5126, "count" : 40176, "type" : "VEC3", "max" : [25.772706985473633, 85.59126281738281, 26.863718032836914], "min" : [-25.742115020751953, 0.05488233268260956, -29.77765655517578], "name" : "POSITION"}, {"bufferView" : 1, "byteOffset" : 12, "componentType" : 5126, "count" : 40176, "type" : "VEC3", "max" : [1.0000044107437134, 1.0000044107437134, 1.0000044107437134], "min" : [-1.0000044107437134, -1.0000011920928955, -1.0000044107437134], "name" : "NORMAL"}, {"bufferView" : 1, "byteOffset" : 24, "componentType" : 5126, "count" : 40176, "type" : "VEC2", "max" : [0.9889808893203735, -0.009686708450317383], "min" : [0.006677850615233183, -0.989266037940979], "name" : "TEXCOORD_0"}], "asset" : {"generator" : "Aspose.3D 21.11", "version" : "2.0"}, "buffers" : [{"uri" : "data:application/octet-stream;base64,", "byteLength" : 1671176}], "bufferViews" : [{"buffer" : 0, "byteOffset" : 0, "byteLength" : 98304, "target" : 34963}, {"buffer" : 0, "byteOffset" : 98308, "byteLength" : 1572864, "byteStride" : 32, "target" : 34962}], "materials" : [{"name" : "", "pbrMetallicRoughness" : {"baseColorFactor" : [1, 1, 1, 1], "metallicFactor" : 0, "roughnessFactor" : 0}, "emissiveFactor" : [0, 0, 0], "alphaMode" : "OPAQUE", "doubleSided" : false}], "meshes" : [{"primitives" : [{"attributes" : {"POSITION" : 1, "NORMAL" : 2, "TEXCOORD_0" : 3}, "indices" : 0, "material" : 0, "mode" : 4}], "name" : ""}], "nodes" : [{"mesh" : 0, "name" : "gagukok_tulipchair_tablechair"}], "scene" : 0, "scenes" : [{"nodes" : [0]}]}